<svg xmlns="http://www.w3.org/2000/svg" viewBox="0 0 7410 3900">
  <path fill="#b22234" d="M0 0h7410v3900H0z"/>
  <g fill="#fff">
    <path d="M0 300h7410v300H0zM0 900h7410v300H0zM0 1500h7410v300H0zM0 2100h7410v300H0zM0 2700h7410v300H0zM0 3300h7410v300H0z"/>
  </g>
  <path fill="#3c3b6e" d="M0 0h2964v2100H0z"/>
  <g fill="#fff">
    <g id="s">
      <polygon points="247,90 317,306 133,173 361,173 177,306"/>
    </g>
    <!-- simple “stars” pattern (stylised) -->
    <use href="#s" x="0" y="0"/><use href="#s" x="494" y="0"/><use href="#s" x="988" y="0"/><use href="#s" x="1482" y="0"/><use href="#s" x="1976" y="0"/><use href="#s" x="2470" y="0"/>
    <use href="#s" x="247" y="210"/><use href="#s" x="741" y="210"/><use href="#s" x="1235" y="210"/><use href="#s" x="1729" y="210"/><use href="#s" x="2223" y="210"/><use href="#s" x="2717" y="210"/>
    <use href="#s" x="0" y="420"/><use href="#s" x="494" y="420"/><use href="#s" x="988" y="420"/><use href="#s" x="1482" y="420"/><use href="#s" x="1976" y="420"/><use href="#s" x="2470" y="420"/>
    <use href="#s" x="247" y="630"/><use href="#s" x="741" y="630"/><use href="#s" x="1235" y="630"/><use href="#s" x="1729" y="630"/><use href="#s" x="2223" y="630"/><use href="#s" x="2717" y="630"/>
    <use href="#s" x="0" y="840"/><use href="#s" x="494" y="840"/><use href="#s" x="988" y="840"/><use href="#s" x="1482" y="840"/><use href="#s" x="1976" y="840"/><use href="#s" x="2470" y="840"/>
    <use href="#s" x="247" y="1050"/><use href="#s" x="741" y="1050"/><use href="#s" x="1235" y="1050"/><use href="#s" x="1729" y="1050"/><use href="#s" x="2223" y="1050"/><use href="#s" x="2717" y="1050"/>
    <use href="#s" x="0" y="1260"/><use href="#s" x="494" y="1260"/><use href="#s" x="988" y="1260"/><use href="#s" x="1482" y="1260"/><use href="#s" x="1976" y="1260"/><use href="#s" x="2470" y="1260"/>
    <use href="#s" x="247" y="1470"/><use href="#s" x="741" y="1470"/><use href="#s" x="1235" y="1470"/><use href="#s" x="1729" y="1470"/><use href="#s" x="2223" y="1470"/><use href="#s" x="2717" y="1470"/>
    <use href="#s" x="0" y="1680"/><use href="#s" x="494" y="1680"/><use href="#s" x="988" y="1680"/><use href="#s" x="1482" y="1680"/><use href="#s" x="1976" y="1680"/><use href="#s" x="2470" y="1680"/>
  </g>
</svg>